<?xml version="1.0" encoding="utf-8" ?>
<svg baseProfile="tiny" height="512" version="1.2" width="512" xmlns="http://www.w3.org/2000/svg" xmlns:ev="http://www.w3.org/2001/xml-events" xmlns:xlink="http://www.w3.org/1999/xlink"><defs /><path d="M 141,12 L 140,13 L 126,13 L 125,14 L 120,14 L 119,15 L 115,15 L 114,16 L 111,16 L 110,17 L 107,17 L 106,18 L 104,18 L 103,19 L 101,19 L 100,20 L 98,20 L 97,21 L 96,21 L 95,22 L 93,22 L 92,23 L 91,23 L 90,24 L 89,24 L 88,25 L 86,25 L 85,26 L 84,26 L 83,27 L 82,27 L 81,28 L 80,28 L 79,29 L 78,29 L 76,31 L 75,31 L 74,32 L 73,32 L 71,34 L 70,34 L 69,35 L 68,35 L 66,37 L 65,37 L 62,40 L 61,40 L 58,43 L 57,43 L 52,48 L 51,48 L 39,60 L 39,61 L 34,66 L 34,67 L 30,71 L 30,72 L 28,74 L 28,75 L 26,77 L 26,78 L 24,80 L 24,81 L 22,83 L 22,84 L 21,85 L 21,86 L 20,87 L 20,88 L 18,90 L 18,91 L 17,92 L 17,93 L 16,94 L 16,96 L 15,97 L 15,98 L 14,99 L 14,100 L 13,101 L 13,102 L 12,103 L 12,104 L 11,105 L 11,107 L 10,108 L 10,110 L 9,111 L 9,113 L 8,114 L 8,116 L 7,117 L 7,119 L 6,120 L 6,122 L 5,123 L 5,126 L 4,127 L 4,130 L 3,131 L 3,135 L 2,136 L 2,141 L 1,142 L 1,149 L 0,150 L 0,185 L 1,186 L 1,193 L 2,194 L 2,199 L 3,200 L 3,203 L 4,204 L 4,208 L 5,209 L 5,211 L 6,212 L 6,215 L 7,216 L 7,218 L 8,219 L 8,221 L 9,222 L 9,224 L 10,225 L 10,227 L 11,228 L 11,229 L 12,230 L 12,232 L 13,233 L 13,234 L 14,235 L 14,236 L 15,237 L 15,239 L 16,240 L 16,241 L 17,242 L 17,243 L 18,244 L 18,245 L 19,246 L 19,247 L 20,248 L 20,249 L 21,250 L 21,251 L 22,252 L 22,253 L 24,255 L 24,256 L 25,257 L 25,258 L 26,259 L 26,260 L 27,261 L 27,262 L 28,263 L 28,264 L 29,265 L 29,266 L 31,268 L 31,269 L 32,270 L 32,271 L 34,273 L 34,274 L 35,275 L 35,276 L 37,278 L 37,279 L 38,280 L 38,281 L 40,283 L 40,284 L 41,285 L 41,286 L 43,288 L 43,289 L 45,291 L 45,292 L 47,294 L 47,295 L 49,297 L 49,298 L 51,300 L 51,301 L 53,303 L 53,304 L 56,307 L 56,308 L 58,310 L 58,311 L 61,314 L 61,315 L 64,318 L 64,319 L 67,322 L 67,323 L 70,326 L 70,327 L 73,330 L 73,331 L 77,335 L 77,336 L 82,341 L 82,342 L 87,347 L 87,348 L 93,354 L 93,355 L 100,362 L 100,363 L 110,373 L 110,374 L 147,411 L 148,411 L 159,422 L 160,422 L 169,431 L 170,431 L 176,437 L 177,437 L 183,443 L 184,443 L 189,448 L 190,448 L 195,453 L 196,453 L 201,458 L 202,458 L 206,462 L 207,462 L 211,466 L 212,466 L 215,469 L 216,469 L 220,473 L 221,473 L 224,476 L 225,476 L 228,479 L 229,479 L 232,482 L 233,482 L 236,485 L 237,485 L 240,488 L 241,488 L 244,491 L 245,491 L 248,494 L 249,494 L 252,497 L 253,497 L 255,499 L 256,498 L 257,498 L 260,495 L 261,495 L 263,493 L 264,493 L 267,490 L 268,490 L 271,487 L 272,487 L 275,484 L 276,484 L 279,481 L 280,481 L 283,478 L 284,478 L 287,475 L 288,475 L 292,471 L 293,471 L 296,468 L 297,468 L 301,464 L 302,464 L 306,460 L 307,460 L 311,456 L 312,456 L 317,451 L 318,451 L 323,446 L 324,446 L 329,441 L 330,441 L 336,435 L 337,435 L 344,428 L 345,428 L 354,419 L 355,419 L 369,405 L 370,405 L 397,378 L 397,377 L 410,364 L 410,363 L 418,355 L 418,354 L 424,348 L 424,347 L 429,342 L 429,341 L 433,337 L 433,336 L 437,332 L 437,331 L 441,327 L 441,326 L 444,323 L 444,322 L 447,319 L 447,318 L 450,315 L 450,314 L 453,311 L 453,310 L 455,308 L 455,307 L 458,304 L 458,303 L 460,301 L 460,300 L 462,298 L 462,297 L 464,295 L 464,294 L 466,292 L 466,291 L 468,289 L 468,288 L 470,286 L 470,285 L 471,284 L 471,283 L 473,281 L 473,280 L 475,278 L 475,277 L 476,276 L 476,275 L 478,273 L 478,272 L 479,271 L 479,270 L 480,269 L 480,268 L 482,266 L 482,265 L 483,264 L 483,263 L 484,262 L 484,261 L 486,259 L 486,258 L 487,257 L 487,256 L 488,255 L 488,254 L 489,253 L 489,252 L 490,251 L 490,250 L 491,249 L 491,248 L 492,247 L 492,246 L 493,245 L 493,244 L 494,243 L 494,242 L 495,241 L 495,240 L 496,239 L 496,238 L 497,237 L 497,235 L 498,234 L 498,233 L 499,232 L 499,231 L 500,230 L 500,228 L 501,227 L 501,225 L 502,224 L 502,223 L 503,222 L 503,219 L 504,218 L 504,216 L 505,215 L 505,213 L 506,212 L 506,209 L 507,208 L 507,205 L 508,204 L 508,200 L 509,199 L 509,194 L 510,193 L 510,186 L 511,185 L 511,150 L 510,149 L 510,142 L 509,141 L 509,136 L 508,135 L 508,132 L 507,131 L 507,127 L 506,126 L 506,124 L 505,123 L 505,120 L 504,119 L 504,117 L 503,116 L 503,114 L 502,113 L 502,111 L 501,110 L 501,108 L 500,107 L 500,106 L 499,105 L 499,103 L 498,102 L 498,101 L 497,100 L 497,99 L 496,98 L 496,97 L 495,96 L 495,95 L 494,94 L 494,93 L 493,92 L 493,91 L 492,90 L 492,89 L 491,88 L 491,87 L 490,86 L 490,85 L 488,83 L 488,82 L 487,81 L 487,80 L 485,78 L 485,77 L 483,75 L 483,74 L 480,71 L 480,70 L 477,67 L 477,66 L 471,60 L 471,59 L 462,50 L 461,50 L 455,44 L 454,44 L 451,41 L 450,41 L 447,38 L 446,38 L 444,36 L 443,36 L 441,34 L 440,34 L 439,33 L 438,33 L 436,31 L 435,31 L 434,30 L 433,30 L 432,29 L 431,29 L 430,28 L 429,28 L 428,27 L 427,27 L 426,26 L 425,26 L 424,25 L 423,25 L 422,24 L 421,24 L 420,23 L 418,23 L 417,22 L 416,22 L 415,21 L 413,21 L 412,20 L 410,20 L 409,19 L 407,19 L 406,18 L 404,18 L 403,17 L 400,17 L 399,16 L 396,16 L 395,15 L 391,15 L 390,14 L 384,14 L 383,13 L 355,13 L 354,14 L 348,14 L 347,15 L 343,15 L 342,16 L 339,16 L 338,17 L 335,17 L 334,18 L 332,18 L 331,19 L 329,19 L 328,20 L 326,20 L 325,21 L 324,21 L 323,22 L 321,22 L 320,23 L 319,23 L 318,24 L 317,24 L 316,25 L 315,25 L 314,26 L 313,26 L 312,27 L 311,27 L 310,28 L 309,28 L 308,29 L 307,29 L 306,30 L 305,30 L 304,31 L 303,31 L 301,33 L 300,33 L 298,35 L 297,35 L 295,37 L 294,37 L 292,39 L 291,39 L 288,42 L 287,42 L 283,46 L 282,46 L 277,51 L 276,51 L 264,63 L 264,64 L 258,70 L 258,71 L 255,74 L 254,73 L 254,72 L 250,68 L 250,67 L 229,46 L 228,46 L 224,42 L 223,42 L 220,39 L 219,39 L 217,37 L 216,37 L 214,35 L 213,35 L 211,33 L 210,33 L 208,31 L 207,31 L 206,30 L 205,30 L 204,29 L 203,29 L 202,28 L 201,28 L 199,26 L 198,26 L 197,25 L 195,25 L 194,24 L 193,24 L 192,23 L 191,23 L 190,22 L 189,22 L 188,21 L 186,21 L 185,20 L 183,20 L 182,19 L 180,19 L 179,18 L 177,18 L 176,17 L 174,17 L 173,16 L 170,16 L 169,15 L 165,15 L 164,14 L 158,14 L 157,13 L 146,13 L 145,12 Z" fill="red" /></svg>